<svg width="232" height="106" viewBox="0 0 232 106" fill="none" xmlns="http://www.w3.org/2000/svg">
<path d="M211.694 39.2751C206.699 39.2751 202.413 41.0065 198.837 44.4692C195.289 47.9319 193.515 52.1042 193.515 56.986C193.543 61.8679 195.331 66.0402 198.879 69.5029C202.427 72.9656 206.699 74.697 211.694 74.697C215.639 74.697 219.23 73.5333 222.465 71.2059L229.873 78.6564C224.594 82.8855 218.534 85 211.694 85C207.806 85 204.087 84.262 200.54 82.7861C196.992 81.3102 193.941 79.3234 191.386 76.8257C188.832 74.328 186.788 71.362 185.255 67.9277C183.723 64.4649 182.956 60.8319 182.956 57.0286V56.986V56.9435C182.956 53.1402 183.723 49.5213 185.255 46.087C186.788 42.6243 188.832 39.6441 191.386 37.1464C193.941 34.6203 196.992 32.6193 200.54 31.1434C204.087 29.6675 207.806 28.9295 211.694 28.9295C218.534 28.9295 224.594 31.044 229.873 35.2731L222.465 42.7236C219.258 40.4246 215.668 39.2751 211.694 39.2751Z" fill="white"/>
<path d="M6.75371 99.2871C7.53984 99.2871 8.21123 99.5679 8.76787 100.129C9.32939 100.686 9.61015 101.357 9.61015 102.144C9.61015 102.93 9.32939 103.601 8.76787 104.158C8.20634 104.714 7.53252 104.993 6.74638 104.993H2.16142V103.22H6.75371C7.05156 103.22 7.30547 103.115 7.51543 102.905C7.72539 102.69 7.83037 102.434 7.83037 102.136C7.83037 101.838 7.72539 101.584 7.51543 101.375C7.30547 101.165 7.05156 101.06 6.75371 101.06H6.70244H4.58574C3.79961 101.06 3.12578 100.781 2.56425 100.225C2.00761 99.668 1.72929 98.9966 1.72929 98.2104C1.72929 97.4243 2.00761 96.7529 2.56425 96.1963C3.12578 95.6348 3.79961 95.354 4.58574 95.354H9.17802V97.1338H4.58574C4.28789 97.1338 4.03154 97.2388 3.8167 97.4487C3.60674 97.6587 3.50175 97.9126 3.50175 98.2104C3.50175 98.5083 3.60674 98.7622 3.8167 98.9722C4.03154 99.1821 4.28789 99.2871 4.58574 99.2871H4.63701H6.75371ZM56.1693 95.354H65.2514V97.1338H61.5966V105H59.8241V97.1338H56.1693V95.354ZM116.637 95.354C117.292 95.354 117.917 95.4834 118.512 95.7422C119.113 95.9961 119.628 96.3403 120.058 96.7749C120.487 97.2046 120.829 97.7173 121.083 98.313C121.342 98.9087 121.471 99.5337 121.471 100.188C121.471 101.062 121.254 101.87 120.819 102.612C120.39 103.35 119.804 103.936 119.062 104.37C118.319 104.8 117.511 105.015 116.637 105.015C115.983 105.015 115.358 104.888 114.762 104.634C114.167 104.38 113.654 104.038 113.224 103.608C112.794 103.174 112.45 102.659 112.191 102.063C111.938 101.467 111.811 100.842 111.811 100.188C111.811 99.314 112.025 98.5059 112.455 97.7637C112.89 97.0215 113.476 96.4355 114.213 96.0059C114.955 95.5713 115.763 95.354 116.637 95.354ZM114.477 102.341C115.072 102.937 115.792 103.235 116.637 103.235C117.482 103.235 118.202 102.937 118.798 102.341C119.394 101.746 119.691 101.028 119.691 100.188C119.691 99.3433 119.391 98.623 118.791 98.0273C118.195 97.4316 117.477 97.1338 116.637 97.1338C115.797 97.1338 115.077 97.4316 114.477 98.0273C113.881 98.623 113.583 99.3433 113.583 100.188C113.583 101.028 113.881 101.746 114.477 102.341ZM175.984 98.2104C175.984 98.728 175.855 99.2065 175.596 99.646C175.338 100.085 174.991 100.43 174.556 100.679L176.131 105H174.359L172.923 101.06H169.781V105H168.008V95.3467L173.128 95.354C173.914 95.354 174.586 95.6348 175.142 96.1963C175.704 96.7529 175.984 97.4243 175.984 98.2104ZM169.781 97.1338V99.2871H173.135C173.433 99.2871 173.687 99.1821 173.897 98.9722C174.107 98.7622 174.212 98.5083 174.212 98.2104C174.212 97.9126 174.107 97.6587 173.897 97.4487C173.687 97.2388 173.433 97.1338 173.135 97.1338H169.781ZM222.683 95.3467L230.249 95.354V97.1338H224.455V99.2871H230.249V101.06H224.455V103.228H230.249V105H222.683V95.3467Z" fill="#FF8400"/>
<path d="M75.8872 52.09H103.986V56.986C103.986 62.0666 102.723 66.764 100.197 71.0782C97.6995 75.364 94.2936 78.7699 89.9794 81.296C85.6652 83.7937 80.9678 85.0426 75.8872 85.0426C72.0839 85.0426 68.4509 84.3046 64.9882 82.8287C61.5538 81.3528 58.5736 79.366 56.0476 76.8683C53.5499 74.3422 51.5489 71.362 50.0446 67.9277C48.5687 64.4649 47.8307 60.8319 47.8307 57.0286V56.986C47.8307 53.1827 48.597 49.5497 50.1297 46.087C51.6624 42.6243 53.706 39.6441 56.2604 37.1464C58.8149 34.6487 61.8661 32.6619 65.4139 31.186C68.9618 29.6817 72.68 28.9295 76.5684 28.9295C83.4087 28.9295 89.4685 31.044 94.7477 35.2731L87.3397 42.7236C84.1325 40.4246 80.542 39.2751 76.5684 39.2751C71.573 39.2751 67.2872 41.0065 63.711 44.4692C60.1631 47.9319 58.3892 52.1042 58.3892 56.986C58.3892 61.8963 60.0779 66.0828 63.4555 69.5455C66.8615 72.9798 71.0054 74.697 75.8872 74.697C79.8608 74.697 83.4087 73.5191 86.5308 71.1633C89.6813 68.7792 91.8101 65.7422 92.917 62.0524H75.8872V52.09Z" fill="white"/>
<path d="M30.5684 39.2751C25.573 39.2751 21.2872 41.0065 17.711 44.4692C14.1631 47.9319 12.3892 52.1042 12.3892 56.986C12.4175 61.8679 14.2057 66.0402 17.7535 69.5029C21.3014 72.9656 25.573 74.697 30.5684 74.697C34.5136 74.697 38.1041 73.5333 41.3397 71.2059L48.7477 78.6564C43.4685 82.8855 37.4087 85 30.5684 85C26.68 85 22.9618 84.262 19.4139 82.7861C15.8661 81.3102 12.8149 79.3234 10.2604 76.8257C7.70597 74.328 5.6624 71.362 4.12972 67.9277C2.59704 64.4649 1.8307 60.8319 1.8307 57.0286V56.986V56.9435C1.8307 53.1402 2.59704 49.5213 4.12972 46.087C5.6624 42.6243 7.70597 39.6441 10.2604 37.1464C12.8149 34.6203 15.8661 32.6193 19.4139 31.1434C22.9618 29.6675 26.68 28.9295 30.5684 28.9295C37.4087 28.9295 43.4685 31.044 48.7477 35.2731L41.3397 42.7236C38.1325 40.4246 34.542 39.2751 30.5684 39.2751Z" fill="white"/>
<path d="M111.536 37.048C111.762 35.0181 112.729 33.1428 114.251 31.7809C115.773 30.419 117.744 29.6662 119.786 29.6665H165.215C167.256 29.6676 169.226 30.421 170.747 31.7827C172.268 33.1445 173.234 35.019 173.459 37.048L177.77 75.7813C177.899 76.9417 177.782 78.1163 177.426 79.2284C177.071 80.3405 176.484 81.365 175.706 82.235C174.927 83.105 173.974 83.801 172.908 84.2774C171.842 84.7538 170.687 85 169.52 84.9998H115.481C114.314 84.9992 113.16 84.7525 112.095 84.2757C111.03 83.7989 110.077 83.1029 109.299 82.2329C108.521 81.363 107.935 80.3388 107.58 79.2271C107.224 78.1154 107.107 76.9412 107.237 75.7813L111.536 37.048Z" fill="#FF8400"/>
<path d="M144.32 0C155.741 0 165 9.25875 165 20.6797C165 22.8442 164.667 24.9307 164.05 26.8916C164.285 25.6445 164.409 24.3583 164.409 23.043C164.409 11.622 155.15 2.36328 143.729 2.36328C134.474 2.36338 126.638 8.44438 124 16.8291C125.804 7.24824 134.215 0.000183047 144.32 0Z" fill="white"/>
<path d="M150.778 44.7349C150.713 44.8643 150.649 44.929 150.519 44.929C150.455 44.929 150.39 44.8643 150.325 44.8643C149.937 44.8643 149.614 44.9937 149.29 45.1231C149.225 45.1231 149.161 45.1878 149.161 45.1878C149.031 44.9937 148.967 45.1231 148.902 45.1878C148.579 45.3172 148.384 45.576 147.996 45.576C147.996 45.7053 147.802 45.3819 147.802 45.6407C147.737 45.77 147.543 45.6407 147.414 45.7053C147.285 45.77 147.22 45.8347 147.091 45.8347C146.961 45.8347 146.896 46.0288 146.767 46.0288C146.638 46.0935 146.508 46.1582 146.314 46.1582C146.379 46.4817 146.055 46.3523 145.926 46.4817C145.732 46.417 145.797 46.6758 145.603 46.6758C145.473 46.6758 145.344 46.6758 145.214 46.7405C145.085 46.7405 144.956 46.8699 144.826 46.8699C144.697 46.9345 144.632 47.0639 144.438 47.0639C144.309 47.0639 144.179 47.258 144.05 47.1933C143.985 47.3227 143.92 47.3874 143.726 47.258C143.662 47.258 143.468 47.3874 143.338 47.3874C143.209 47.4521 143.079 47.4521 142.95 47.4521C142.821 47.5168 142.691 47.5168 142.562 47.5168C142.368 47.5815 142.238 47.6462 142.109 47.7109C142.044 47.7756 141.915 47.7756 141.786 47.7756C141.786 47.7756 141.721 47.7756 141.656 47.7756C141.591 47.7756 141.527 47.7756 141.462 47.7756C140.945 47.9697 140.492 48.0344 139.974 48.0991C139.586 48.1638 136.675 48.6166 136.416 48.746C136.351 48.746 136.286 48.746 136.222 48.746C136.157 48.746 136.092 48.746 135.963 48.746C135.834 48.746 135.64 48.746 135.575 48.8107C135.51 48.8107 134.281 49.0048 134.216 49.0048C133.505 49.0048 132.469 48.6166 132.017 48.0991C131.887 47.905 131.693 47.7756 131.499 47.7109C131.24 47.5815 131.111 47.258 130.917 46.9992C130.852 46.9345 130.787 46.8699 130.723 46.8052C130.593 46.6758 130.399 46.6111 130.335 46.417C130.335 46.2229 130.076 46.2876 130.011 46.0288C129.946 45.8994 129.688 45.77 129.688 45.576C129.752 45.3819 129.558 45.3172 129.494 45.1878C129.494 44.9937 129.364 44.8643 129.299 44.7349C129.17 44.5408 128.976 44.4114 129.041 44.1527C129.041 44.0233 128.976 43.7645 128.847 43.6998C128.782 43.6998 128.717 43.441 128.782 43.3763C128.976 43.1176 128.652 42.9235 128.782 42.6647C128.652 42.6 128.717 42.4706 128.717 42.3412C128.717 42.2765 128.717 42.2118 128.717 42.1471C128.523 41.6296 128.523 41.6296 128.588 41.1767C128.588 41.1767 128.652 41.112 128.588 41.0473C128.523 40.9826 128.394 40.9179 128.588 40.7885C128.588 40.7238 128.588 40.5945 128.588 40.5298C128.652 40.271 129.105 39.8181 129.299 39.8181C129.364 39.8181 129.429 39.8181 129.494 39.8828C129.494 39.8828 129.623 39.8181 129.623 39.7534C129.688 39.5593 129.817 39.624 129.946 39.6887C130.27 39.8828 130.723 39.8181 131.111 39.8181C131.176 39.6887 131.24 40.0122 131.305 39.8181C131.37 39.7534 131.564 39.8181 131.628 39.8181C131.887 39.8181 132.211 39.7534 132.534 39.624C132.599 39.624 132.664 39.624 132.793 39.624C133.116 39.624 133.44 39.624 133.828 39.624C133.893 39.624 133.957 39.624 134.022 39.624C134.022 39.624 134.087 39.5593 134.152 39.5593C134.216 39.5593 134.281 39.624 134.41 39.624C134.475 39.624 134.54 39.624 134.604 39.5593C134.604 39.4946 134.734 39.5593 134.799 39.5593C134.863 39.5593 134.993 39.5593 135.122 39.5593C135.251 39.5593 135.445 39.5593 135.64 39.3652C135.64 39.3652 135.704 39.3652 135.769 39.3652C135.963 39.3006 136.157 39.3006 136.351 39.3006C136.61 39.3006 136.804 39.3006 136.998 39.2359C137.322 39.2359 137.645 39.1712 137.969 39.1065C138.033 39.1065 138.163 39.1065 138.227 39.1712H138.551C138.874 39.0418 139.262 39.0418 139.651 38.9124C139.651 38.9771 139.715 38.9771 139.78 38.9771C139.845 38.9771 139.974 38.9771 140.039 38.9771C140.103 38.9771 140.168 38.9771 140.298 39.0418C140.427 38.9124 140.75 39.0418 140.815 38.783C140.88 38.8477 140.945 38.8477 141.009 38.8477C141.139 38.8477 141.203 38.783 141.268 38.783C141.333 38.8477 141.462 38.8477 141.527 38.8477C141.85 38.8477 142.174 38.7183 142.497 38.7183C142.562 38.5889 142.756 38.783 142.821 38.6536C143.015 38.6536 143.144 38.7183 143.274 38.7183C143.532 38.7183 143.791 38.6536 144.05 38.5889C144.115 38.6536 144.115 38.7183 144.179 38.7183C144.309 38.7183 144.373 38.5889 144.503 38.5889C144.503 38.5889 144.567 38.5242 144.632 38.5242C144.697 38.5242 144.762 38.5242 144.826 38.5242C145.02 38.5242 145.214 38.5242 145.408 38.5242C145.861 38.5242 146.314 38.4595 146.702 38.4595C146.832 38.4595 146.896 38.4595 147.026 38.4595C147.091 38.3948 147.155 38.3948 147.22 38.3948C147.349 38.3948 147.414 38.4595 147.543 38.4595C147.608 38.4595 147.673 38.3948 147.737 38.3301C147.802 38.4595 147.867 38.4595 147.932 38.4595C147.996 38.4595 148.126 38.3301 148.255 38.3948C148.32 38.3948 148.449 38.4595 148.579 38.4595C148.643 38.4595 148.708 38.4595 148.773 38.3948C148.837 38.4595 148.902 38.4595 148.967 38.4595C149.031 38.4595 149.096 38.4595 149.161 38.4595C149.225 38.4595 149.225 38.4595 149.29 38.5242C149.355 38.4595 149.42 38.3948 149.484 38.3948C149.872 38.3948 150.196 38.3948 150.584 38.3948C150.713 38.3948 150.843 38.4595 150.972 38.4595C151.037 38.2654 151.231 38.6536 151.296 38.3948C151.49 38.3948 151.619 38.4595 151.749 38.4595C151.878 38.4595 151.943 38.4595 152.072 38.4595C152.137 38.4595 152.266 38.5242 152.331 38.4595C152.396 38.3301 152.46 38.5242 152.525 38.4595C152.719 38.5242 152.784 38.5242 152.848 38.5242C152.913 38.5242 153.042 38.5242 153.107 38.4595C153.237 38.3948 153.301 38.3948 153.431 38.5242C153.495 38.5242 153.625 38.3301 153.754 38.5242C153.948 38.4595 154.013 38.4595 154.078 38.4595C154.272 38.4595 154.466 38.5242 154.66 38.5242C154.725 38.5242 154.789 38.5242 154.919 38.4595C155.048 38.5889 155.177 38.6536 155.371 38.5889C155.371 38.5889 155.436 38.5889 155.501 38.5889C155.63 38.5889 155.76 38.5889 155.889 38.6536C155.954 38.6536 156.018 38.6536 156.083 38.6536C156.148 38.6536 156.213 38.6536 156.407 38.783C156.536 38.7183 156.665 38.7183 156.795 38.7183C157.054 38.7183 157.377 38.783 157.636 38.8477C157.83 38.8477 157.959 38.783 158.089 38.783C158.218 38.783 158.283 38.9124 158.412 38.9124C158.542 38.8477 158.606 38.9124 158.736 38.9124C158.865 38.9124 158.994 38.9124 159.124 39.0418C159.124 39.0418 159.253 39.0418 159.383 39.0418C159.641 39.1065 159.965 39.1065 160.224 39.1712C160.418 39.1712 160.547 39.1065 160.741 39.2359C160.806 39.3006 161 39.2359 161.129 39.2359C161.388 39.3006 161.582 39.3652 161.906 39.4946C162.035 39.4946 162.164 39.4946 162.294 39.5593C162.423 39.5593 162.617 39.6887 162.682 39.6887C162.747 39.624 162.811 39.624 162.811 39.624C163.005 39.624 163.2 39.7534 163.394 39.7534C163.458 39.8181 164.17 40.0122 164.364 40.0122C164.429 40.0122 164.623 40.0122 164.558 40.2063C164.882 40.3357 165.14 40.4004 165.464 40.4004C165.464 40.7238 165.852 40.5945 165.852 40.7885C165.658 40.9179 165.464 40.9826 165.205 41.0473C164.946 41.0473 164.752 41.2414 164.558 41.2414C164.235 41.3061 163.911 41.4355 163.588 41.3708H163.523C163.329 41.4355 163.135 41.5649 162.941 41.5002C162.811 41.5002 162.682 41.5649 162.553 41.5649C162.488 41.5649 162.423 41.5649 162.359 41.5002C162.294 41.5649 162.294 41.5649 162.229 41.5649C162.1 41.5649 162.035 41.5649 161.97 41.5649C161.906 41.5649 161.841 41.5649 161.776 41.6296C161.712 41.5649 161.582 41.5649 161.517 41.5649C161.129 41.5649 160.547 41.6943 160.159 41.8237C159.965 41.8883 159.835 41.953 159.641 41.953C159.188 41.953 158.865 42.3412 158.412 42.2765C158.153 42.5353 157.765 42.5353 157.442 42.5353C157.377 42.5353 157.377 42.5353 157.312 42.5353C157.248 42.5353 156.989 42.5353 156.989 42.6C156.989 42.7294 156.924 42.7294 156.859 42.7294C156.73 42.7294 156.536 42.7294 156.407 42.7294C156.083 42.7941 155.76 42.8588 155.436 42.8588C155.242 42.7941 155.113 42.9235 154.983 42.9235C154.854 42.9235 154.789 42.9235 154.725 43.0529C154.854 42.9882 154.919 43.3116 155.113 43.1822C155.177 43.0529 155.177 43.2469 155.307 43.2469C155.371 43.1822 155.436 43.1822 155.566 43.1822C155.63 43.1822 155.63 43.2469 155.695 43.3116C155.566 43.3116 155.436 43.3116 155.307 43.3116C155.177 43.3116 154.983 43.3116 154.854 43.3763C154.66 43.5057 154.466 43.5704 154.336 43.6351C154.207 43.6998 154.142 43.7645 154.078 43.6351C153.948 43.5057 153.689 43.6351 153.56 43.441C153.495 43.5704 153.301 43.5057 153.237 43.5057C153.107 43.5704 153.042 43.6351 152.978 43.6998C152.719 43.7645 152.396 43.6998 152.137 43.7645C152.072 43.8292 152.007 43.7645 151.943 43.7645C151.878 43.6998 151.813 43.6351 151.749 43.6351C151.619 43.6351 151.554 43.6998 151.49 43.6998C151.554 43.6998 151.554 43.7645 151.684 43.8292C151.554 43.8292 151.49 43.8292 151.36 43.8292V43.9586C151.425 44.0233 151.554 44.088 151.684 44.1527C151.749 44.0233 151.749 44.0233 151.813 44.0233C151.813 44.1527 151.878 44.2174 152.007 44.088C152.137 44.088 152.266 44.088 152.331 44.088C152.331 44.4114 152.007 44.2174 151.943 44.3468C151.425 44.3468 150.908 44.4114 150.455 44.5408C150.39 44.5408 150.261 44.4761 150.196 44.4761C150.066 44.6055 150.002 44.6702 150.002 44.7349C150.066 44.7349 150.066 44.7349 150.131 44.6702C150.325 44.7349 150.584 44.6702 150.778 44.7349ZM147.414 72.7478C147.543 72.8125 147.608 72.8125 147.737 72.8772C147.673 72.8772 147.608 72.9419 147.543 72.9419C147.414 73.0066 147.349 73.0066 147.349 72.8772C147.285 72.8772 147.285 72.8125 147.22 72.7478C147.22 72.8125 147.155 72.8772 147.155 72.8772C147.091 72.9419 147.155 73.0066 147.091 73.0066C147.091 73.2007 147.22 73.2654 147.479 73.2654C147.479 73.2007 147.543 73.2007 147.608 73.2007C147.673 73.2007 147.802 73.2007 147.867 73.2007C147.932 73.2007 147.932 73.2007 147.996 73.2007C148.061 73.136 148.126 73.136 148.19 73.136L148.255 73.2007C148.255 73.2654 148.255 73.3301 148.19 73.3301L146.961 73.6535C146.896 73.7182 146.832 73.5888 146.702 73.5888C146.702 73.5888 146.055 73.8476 145.991 73.9123C145.861 73.9123 144.567 74.3005 144.503 74.3005C144.309 74.3005 144.115 74.4299 143.92 74.4946C143.532 74.5593 143.079 74.7533 142.691 74.7533C142.562 74.7533 142.432 74.8827 142.303 74.8827C142.174 74.9474 141.915 74.818 141.85 74.8827C141.786 75.0121 141.656 75.0121 141.527 75.0121C141.462 75.0121 141.333 75.0121 141.268 75.0121C141.203 75.0121 141.139 75.0768 141.139 75.0768C141.009 75.0768 140.945 75.2062 140.75 75.0768C140.75 75.0121 140.556 75.0768 140.427 75.1415C140.298 75.1415 140.168 75.1415 140.039 75.2062C139.909 75.2709 139.78 75.2709 139.651 75.2709C139.327 75.2062 138.616 75.4003 138.292 75.5297C138.227 75.5944 138.163 75.5944 138.098 75.5944C137.71 75.5944 137.257 75.5944 136.869 75.8532C136.739 75.9179 136.675 75.6591 136.545 75.7885C136.481 75.8532 136.351 75.8532 136.286 75.9179C135.575 76.1119 134.863 76.1119 134.216 76.3707C134.152 76.3707 134.087 76.1766 134.022 76.306C133.957 76.3707 133.828 76.3707 133.699 76.4354C133.634 76.4354 133.505 76.4354 133.44 76.4354C133.375 76.5001 133.246 76.5648 133.181 76.5648C132.728 76.5648 131.305 76.6942 130.917 76.8236C130.787 76.8883 130.593 76.8236 130.464 76.8236C130.399 76.8236 130.335 76.8236 130.27 76.8236C130.27 76.8883 130.205 76.7589 130.205 76.7589C130.076 76.7589 130.011 76.6295 129.882 76.6295C129.882 76.6295 129.817 76.6942 129.752 76.7589C129.623 76.6942 129.494 76.6295 129.364 76.5648C129.235 76.5648 129.235 76.4354 129.17 76.306C129.041 75.9826 128.911 75.6591 128.652 75.3356C128.523 75.1415 128.394 74.818 128.329 74.4946C128.394 74.3005 128.2 74.2358 128.2 74.0417C128.2 73.9123 128.2 73.7182 128.2 73.5888C128.2 73.5241 128.135 73.4595 128.135 73.4595C127.876 73.0713 127.747 72.1009 127.747 71.648C127.682 71.3245 127.617 71.001 127.617 70.6129C127.617 70.4188 127.488 70.2247 127.488 70.0306C127.488 69.7718 127.229 69.7071 127.294 69.4484C127.359 69.3837 127.229 69.319 127.294 69.1896C127.294 68.9955 127.294 68.8014 127.165 68.6073C127.1 68.4779 127.165 68.4779 127.229 68.4132C127.359 68.3486 127.488 68.2839 127.617 68.2192C127.811 68.0251 127.876 67.9604 128.135 67.831C128.458 67.831 129.429 67.4428 129.623 67.1194C129.946 67.184 130.205 66.9253 130.529 66.9253C130.593 66.8606 130.658 66.7959 130.723 66.7959C130.852 66.7959 130.917 66.7959 131.046 66.7959C131.111 66.7959 131.176 66.7959 131.176 66.7959C131.305 66.7959 131.37 66.7959 131.499 66.7959C131.564 66.7959 132.275 66.6665 132.275 66.6018C132.34 66.6018 132.405 66.6018 132.405 66.6665C132.534 66.7959 132.664 66.7312 132.793 66.7312C133.181 66.6665 133.634 66.6018 134.022 66.4724C134.152 66.4077 134.346 66.4724 134.475 66.4724C134.54 66.4724 134.604 66.4724 134.669 66.4724C134.928 66.4724 135.122 66.4724 135.381 66.343C135.704 66.343 135.834 66.343 136.157 66.2136L136.675 66.2783C136.739 66.2783 136.869 66.2783 136.998 66.2783C137.257 66.2783 137.451 66.2783 137.71 66.2783C137.71 66.2783 137.774 66.2783 137.839 66.2783C137.904 66.2783 137.969 66.2136 138.033 66.2136C138.163 66.2136 138.227 66.0842 138.357 66.0842C138.421 66.0842 138.486 66.1489 138.551 66.2136C138.745 66.2136 138.939 66.2136 139.068 66.0842C139.198 66.0195 139.262 66.0195 139.392 66.0195C139.457 66.0195 139.586 66.0195 139.651 66.0842C139.715 66.1489 139.78 66.2136 139.845 66.0842C139.845 66.0195 139.845 65.8901 139.974 66.0195C140.039 66.1489 140.103 66.1489 140.168 66.1489C140.233 66.1489 140.233 66.1489 140.362 66.0842C140.362 66.0195 140.492 66.1489 140.556 66.1489C140.621 66.1489 140.75 66.0842 140.815 66.0842C141.009 66.0195 141.139 66.0195 141.333 66.0195C141.527 66.0195 141.786 66.0195 142.044 66.0195C142.109 66.0195 142.174 66.0195 142.238 66.0842C142.368 66.1489 142.562 66.0195 142.691 65.9548C142.756 66.0195 142.821 66.0842 142.885 66.0842C143.015 66.0842 143.209 66.0195 143.338 66.0195C143.468 66.0195 143.597 66.0195 143.726 66.0195C143.92 66.0842 144.115 66.0842 144.309 66.0842C144.503 66.0842 144.762 66.0842 144.956 66.0842C145.02 66.0842 145.15 66.0842 145.279 66.0842C145.408 66.0842 145.538 65.9548 145.667 66.0195C145.797 66.0842 146.185 66.0842 146.379 66.0842C146.444 66.0842 146.508 66.0842 146.573 66.0195C146.638 66.0842 146.767 66.1489 146.832 66.1489C146.896 66.1489 146.961 66.1489 147.026 66.0842C147.155 66.1489 147.22 66.2136 147.285 66.2136C147.479 66.2136 147.608 66.0842 147.802 66.1489C148.061 66.2136 148.32 66.2136 148.579 66.2136C148.708 66.2136 148.902 66.1489 149.031 66.2136C149.096 66.2783 149.096 66.2783 149.161 66.2783C149.29 66.2783 149.743 66.2783 149.743 66.2136C150.002 66.2783 150.261 66.2136 150.519 66.4077C150.649 66.343 150.778 66.343 150.908 66.343C151.037 66.343 151.166 66.343 151.296 66.4724C151.36 66.4077 151.425 66.4077 151.49 66.4077C151.619 66.4077 151.749 66.4077 151.878 66.4077C151.943 66.5371 152.072 66.4724 152.137 66.4724C152.201 66.4724 152.266 66.4724 152.266 66.5371C152.331 66.6665 152.46 66.4077 152.59 66.5371C152.719 66.6665 152.784 66.6018 152.913 66.5371C152.978 66.5371 153.107 66.6665 153.172 66.6665C153.301 66.5371 153.431 66.6018 153.56 66.6665C154.013 66.7312 154.466 66.7959 154.919 66.99C155.048 67.0547 155.177 67.0547 155.307 67.0547C155.371 67.0547 155.436 67.0547 155.501 67.0547C155.63 67.0547 155.695 67.0547 155.76 67.2487C155.76 67.3781 155.889 67.0547 155.889 67.3134C155.889 67.3781 156.083 67.6369 156.213 67.6369C156.277 67.6369 156.342 67.5722 156.407 67.5075C156.471 67.5075 156.536 67.3781 156.601 67.3134C156.665 67.4428 156.665 67.5075 156.665 67.5722C156.859 67.5722 156.859 67.7016 156.859 67.7663C156.924 68.0251 156.924 68.2192 156.924 68.4779C156.924 68.5426 156.73 68.672 156.989 68.672C156.989 68.672 157.054 68.8014 156.989 68.8014C156.795 68.9308 157.118 69.0602 156.989 69.1896C157.118 69.5778 156.924 69.8365 156.795 70.16C156.665 70.3541 156.665 70.4188 156.665 70.6776C156.665 70.9364 156.601 71.1951 156.342 71.3892C156.213 71.4539 156.277 71.5833 156.342 71.7127C156.342 71.7774 156.342 71.8421 156.342 71.8421C156.277 71.8421 156.148 71.8421 156.148 71.8421C156.148 71.7127 155.824 71.7774 156.083 71.5833C156.018 71.5186 155.889 71.4539 155.76 71.4539C155.695 71.4539 155.63 71.4539 155.566 71.5186L155.501 71.648C155.242 71.648 154.983 71.7774 154.983 72.1009C154.919 72.2302 154.854 72.0362 154.789 72.0362C154.595 72.1656 154.466 72.3596 154.272 72.5537C154.272 72.6184 154.272 72.6831 154.207 72.6831C154.207 72.6831 154.078 72.6831 154.078 72.6184C154.078 72.4243 153.948 72.4243 153.754 72.4243C153.431 72.4243 153.172 72.2949 152.913 72.1656C152.848 72.1656 152.784 72.1656 152.719 72.1656C152.525 72.1656 152.331 72.1656 152.137 72.1656C152.072 72.2302 151.943 72.2302 151.878 72.2302C151.749 72.2302 151.684 72.2302 151.554 72.1656C151.36 72.1656 151.102 72.1656 150.908 72.1656C150.713 72.2302 150.455 72.2949 150.261 72.2949C150.131 72.2949 150.066 72.2949 149.937 72.2302C149.808 72.2302 149.614 72.2302 149.484 72.2302C149.42 72.2302 149.355 72.2302 149.29 72.2949C149.161 72.489 148.967 72.5537 148.773 72.6184C148.579 72.6184 148.384 72.6831 148.19 72.6831C148.126 72.6831 148.126 72.6831 148.061 72.6831C147.867 72.6831 147.608 72.6831 147.414 72.7478ZM148.773 56.7682C148.708 56.9623 148.708 56.9623 148.579 56.8976C148.384 56.7035 148.255 56.5741 148.061 56.5741C147.932 56.5741 147.543 56.6388 147.414 56.6388C147.349 56.7035 147.285 56.8329 147.155 56.7035C147.155 56.7682 146.896 56.8329 147.155 56.8976C147.026 56.8976 146.961 57.0916 146.832 57.0916C146.832 57.0916 146.767 57.0916 146.702 57.027C146.702 56.9623 146.508 56.9623 146.508 57.1563H146.444C146.314 56.9623 146.249 57.1563 146.12 57.1563C145.991 57.1563 145.926 57.221 145.797 57.221C145.732 57.221 145.667 57.221 145.603 57.1563C145.603 57.0916 145.538 57.0916 145.473 57.0916C145.344 57.1563 145.279 57.221 145.15 57.2857C145.085 57.2857 144.891 57.1563 144.826 57.3504C144.762 57.3504 144.762 57.4151 144.762 57.4151C144.956 57.4151 145.02 57.4798 145.15 57.5445C145.085 57.5445 145.02 57.5445 144.956 57.5445C144.826 57.5445 144.632 57.4798 144.503 57.4798C144.373 57.4798 144.309 57.4798 144.115 57.5445C144.179 57.6739 144.244 57.6739 144.244 57.6739C144.503 57.6739 144.762 57.7386 145.02 57.7386C145.085 57.7386 145.15 57.7386 145.214 57.7386C145.344 57.7386 145.473 57.7386 145.603 57.7386C145.667 57.7386 145.797 57.7386 145.926 57.6739C145.991 57.8033 146.12 57.6092 146.185 57.6739C146.508 57.7386 146.896 57.6739 147.22 57.868C147.285 57.9327 147.414 57.868 147.543 57.868C147.608 57.868 147.608 57.7386 147.673 57.868C147.673 57.9327 147.608 57.9974 147.543 58.0621H147.414C147.285 57.9974 147.155 57.868 147.091 57.9327C146.896 58.0621 146.832 57.868 146.767 57.9327C146.702 58.0621 146.573 57.868 146.508 57.9327C146.444 57.9974 146.379 57.9327 146.314 57.868C146.249 57.868 146.185 57.868 146.12 57.9327C146.055 57.9974 145.991 58.0621 145.926 58.1268C145.667 58.1268 145.408 58.1268 145.15 58.1268C145.02 58.1268 144.891 58.1268 144.762 58.1268C144.632 58.0621 144.503 58.2562 144.373 58.0621C144.373 58.1268 144.309 58.1268 144.309 58.1268C144.244 58.2562 144.179 58.2562 144.115 58.1915C144.05 58.1268 143.985 58.1268 143.985 58.2562L143.856 58.3208C143.726 58.1268 143.532 58.1915 143.403 58.1915C143.274 58.1268 143.144 58.1268 143.015 58.2562C143.015 58.2562 143.015 58.2562 143.015 58.3208C142.885 58.3208 142.821 58.1268 142.756 58.2562C142.691 58.2562 142.885 58.3855 142.691 58.3855C142.368 58.4502 142.109 58.5149 141.85 58.6443C141.786 58.6443 141.656 58.709 141.591 58.709C141.527 58.709 141.527 58.709 141.333 58.6443C140.88 58.9031 140.75 58.9678 140.233 58.9678C140.103 58.9678 139.974 58.9678 139.845 58.9678C139.78 59.0325 139.651 58.9678 139.651 59.0972C139.651 59.1619 139.78 59.2913 139.909 59.2913C139.974 59.2266 139.974 59.2266 140.039 59.2266C140.168 59.2266 140.362 59.2266 140.492 59.2913C140.298 59.356 140.039 59.356 139.845 59.5501C139.586 59.4207 139.457 59.8088 139.262 59.7441C139.068 59.9382 138.81 59.9382 138.551 60.0029C137.969 60.197 137.451 60.4558 136.869 60.7793C136.545 60.9733 135.445 61.3615 135.057 61.4262C134.928 61.4262 134.734 61.4909 134.604 61.6203C134.475 61.7497 134.216 61.7497 134.022 61.8144C133.893 61.8791 133.505 62.0732 133.311 62.0732C133.246 62.0732 133.052 62.1378 132.987 62.3319C132.858 62.2672 132.728 62.3319 132.599 62.4613C132.405 62.5907 132.211 62.7848 131.952 62.9142C131.823 62.9789 131.758 63.0436 131.693 62.9142C131.628 62.7201 131.434 62.6554 131.305 62.526C130.982 61.7497 130.787 60.7793 130.723 59.9382C130.723 59.9382 130.723 59.8735 130.658 59.8088C130.529 59.6794 130.593 59.6794 130.723 59.6794C130.723 59.4854 130.658 59.2913 130.658 59.1619C130.464 59.2266 130.464 59.1619 130.464 59.0325C130.464 58.7737 130.399 58.5796 130.335 58.3855C130.529 58.1915 130.27 57.9327 130.399 57.8033C130.205 57.6092 130.399 57.4151 130.27 57.221C130.27 57.1563 130.335 56.9623 130.399 56.8976C130.529 56.7682 130.529 56.5741 130.399 56.4447C130.399 56.3153 130.335 56.1859 130.529 56.1859C130.464 56.3153 130.529 56.38 130.723 56.4447C130.787 56.4447 130.787 56.38 130.723 56.38C130.723 56.2506 130.658 56.1859 130.529 56.1212C130.205 55.8624 130.399 55.539 130.399 55.2802C130.399 55.2155 130.529 55.2155 130.529 55.2155C130.658 55.2155 130.723 55.2155 130.723 55.0214C130.723 54.9567 130.787 54.892 130.852 54.8273C130.917 54.6979 131.046 54.5685 130.852 54.4392C130.723 54.3745 130.787 54.2451 130.917 54.2451C131.046 54.2451 131.176 54.051 131.305 54.051C131.37 54.051 131.37 54.1157 131.434 54.1157C131.499 54.1157 131.693 54.051 131.693 54.051C131.693 53.7922 131.823 53.7922 131.887 53.7922C132.017 53.7922 132.146 53.7922 132.211 53.7275C132.469 53.7922 132.728 53.5981 132.922 53.6628C133.375 53.6628 133.763 53.5334 134.152 53.5334C134.281 53.5334 134.346 53.404 134.475 53.5334C134.54 53.5981 134.734 53.4687 134.863 53.4687C135.122 53.4687 135.316 53.4687 135.575 53.404C135.64 53.3393 135.64 53.404 135.704 53.404C135.834 53.404 135.963 53.404 136.092 53.404C136.545 53.404 137.063 53.3393 137.516 53.3393C137.904 53.3393 138.292 53.3393 138.745 53.21C139.133 53.21 139.521 53.21 139.909 53.21C140.103 53.21 140.233 53.2746 140.362 53.2746C140.427 53.2746 140.492 53.2746 140.492 53.21C140.621 53.21 140.686 53.21 140.75 53.21C140.88 53.21 141.009 53.21 141.074 53.21C141.203 53.21 141.268 53.21 141.397 53.21C141.462 53.21 141.527 53.21 141.656 53.21C141.786 53.1453 141.98 53.21 142.109 53.21C142.238 53.21 142.368 53.404 142.497 53.2746C143.209 53.2746 143.856 53.2746 144.503 53.3393C144.632 53.3393 145.085 53.3393 145.214 53.21C145.214 53.3393 145.344 53.3393 145.408 53.3393C145.538 53.2746 145.603 53.2746 145.732 53.2746C145.926 53.2746 146.12 53.3393 146.314 53.3393C146.379 53.3393 146.508 53.3393 146.444 53.4687C146.444 53.4687 146.832 53.5334 146.832 53.4687C146.896 53.404 146.896 53.3393 146.961 53.4687L147.091 53.404C147.349 53.3393 147.479 53.5334 147.673 53.4687C147.932 53.6628 148.19 53.5334 148.449 53.5981C148.579 53.6628 148.708 53.4687 148.708 53.7275C148.708 53.7275 148.902 53.7922 148.902 53.7275C148.967 53.6628 149.031 53.7275 149.096 53.7922C149.161 53.6628 149.29 53.7922 149.29 53.7922C149.42 53.5981 149.484 53.7922 149.549 53.8569C149.808 53.9216 150.131 53.9863 150.455 54.1157C150.519 54.1157 150.649 54.1157 150.649 54.1804C150.778 54.3098 150.908 54.3745 150.972 54.3745C151.102 54.3745 151.166 54.3098 151.296 54.3098C151.49 54.4392 151.684 54.6332 151.878 54.6979C152.072 54.7626 152.007 54.9567 152.137 55.1508C151.943 55.2155 151.943 55.539 151.684 55.4743C151.619 55.4743 151.49 55.539 151.425 55.6037C151.296 55.7331 151.166 55.7977 150.972 55.7977C150.908 55.7977 150.778 55.7977 150.713 55.7331C150.713 55.9271 150.649 56.0565 150.649 56.1212C150.39 56.1859 150.196 56.3153 149.937 56.4447C150.066 56.5094 150.131 56.5741 150.261 56.6388C150.131 56.7035 150.002 56.7035 149.937 56.7035C149.872 56.7035 149.678 56.7682 149.678 56.7035C149.678 56.7035 149.29 56.7035 149.225 56.7035C149.031 56.7035 148.902 56.7035 148.773 56.7682C148.773 56.7035 148.773 56.7035 148.708 56.7035C148.708 56.7035 148.708 56.7035 148.773 56.7682ZM146.896 56.5741C146.508 56.5741 146.314 56.5741 145.991 56.7035C145.926 56.7035 145.861 56.7035 145.797 56.7035C145.797 56.7035 145.861 56.7682 145.861 56.8329C145.797 57.027 145.861 57.0916 145.991 57.027C146.314 56.9623 146.638 56.8329 146.896 56.5741ZM145.732 56.7682C145.667 56.7035 145.603 56.6388 145.603 56.6388C145.473 56.6388 145.408 56.6388 145.344 56.6388C145.02 56.7035 144.762 56.7682 144.438 56.8329C144.373 56.8329 144.244 56.8329 144.309 56.9623C144.309 56.9623 144.373 57.0916 144.503 57.0916C144.762 57.027 144.956 56.9623 145.279 56.9623C145.408 57.027 145.473 56.9623 145.603 56.8976C145.667 56.8976 145.667 56.8329 145.732 56.7682ZM143.985 57.221L143.92 57.1563C143.985 57.221 143.985 57.221 143.985 57.221ZM143.985 57.5445C143.985 57.6092 143.985 57.6092 143.985 57.6739C143.985 57.5445 143.985 57.5445 143.985 57.5445ZM147.155 53.5981C147.155 53.5334 147.155 53.5334 147.155 53.5334C147.155 53.5334 147.155 53.5334 147.155 53.5981ZM151.49 72.8772C151.231 73.0066 151.037 73.0713 150.843 73.0066C150.843 73.0066 150.778 73.0066 150.713 73.0713C150.519 73.136 150.455 73.136 150.325 73.136C150.261 73.136 150.131 73.136 149.937 73.0713C150.131 73.0713 150.325 73.0066 150.519 72.8772C150.843 72.8772 151.166 72.8772 151.49 72.8772ZM155.695 66.4724C155.501 66.6018 155.371 66.6018 155.307 66.6665C155.242 66.6665 155.113 66.6018 155.113 66.6018C155.113 66.4724 154.983 66.4724 154.919 66.4077C154.983 66.4077 154.983 66.343 155.048 66.343C155.113 66.4077 155.242 66.4077 155.307 66.4724C155.371 66.4724 155.501 66.4724 155.695 66.4724ZM143.403 58.7737C143.532 58.6443 143.597 58.5796 143.662 58.5796C143.791 58.5796 143.92 58.6443 144.05 58.5149C143.856 58.7737 143.662 58.7737 143.403 58.7737ZM155.889 66.99C156.018 66.9253 156.083 66.8606 156.148 66.8606C156.213 66.8606 156.277 66.9253 156.342 67.0547C156.213 67.0547 156.083 67.0547 155.889 66.99ZM165.787 40.1416C165.852 40.1416 165.917 40.1416 165.917 40.2063C165.981 40.2063 165.981 40.271 165.981 40.3357C165.852 40.271 165.852 40.271 165.787 40.271C165.723 40.2063 165.658 40.4651 165.658 40.2063C165.658 40.2063 165.723 40.1416 165.787 40.1416ZM149.678 73.4595C149.808 73.3948 149.872 73.3301 149.937 73.3301C150.002 73.3301 150.002 73.3948 150.002 73.4595C149.937 73.5888 149.808 73.5241 149.678 73.4595ZM148.643 73.2007C148.514 73.2007 148.514 73.2654 148.514 73.2654C148.449 73.2654 148.384 73.2007 148.384 73.136L148.449 73.0713C148.514 73.0713 148.514 73.136 148.643 73.2007ZM152.784 38.2007C152.848 38.2007 152.848 38.136 152.913 38.136C152.978 38.2007 152.978 38.2007 153.042 38.2654C152.978 38.2654 152.913 38.2654 152.784 38.2007ZM165.334 40.2063C165.27 40.2063 165.14 40.1416 165.076 40.1416C165.14 40.1416 165.27 40.1416 165.334 40.2063ZM152.46 43.8939C152.525 43.8939 152.59 43.8939 152.654 43.8939C152.654 43.9586 152.59 43.9586 152.525 44.0233C152.525 44.0233 152.525 43.9586 152.46 43.8939ZM149.678 73.136C149.614 73.0713 149.614 73.0713 149.549 73.0713C149.614 73.0066 149.678 73.0066 149.678 73.0066C149.743 73.0066 149.808 73.0066 149.808 73.0713C149.808 73.0713 149.743 73.0713 149.678 73.136ZM148.061 56.8976C148.061 56.7682 148.061 56.7682 148.061 56.7682C148.126 56.7682 148.126 56.8329 148.19 56.8329C148.126 56.8329 148.126 56.8976 148.061 56.8976ZM149.225 72.9419C149.29 72.9419 149.29 73.0066 149.29 73.0713C149.225 73.0713 149.225 73.0066 149.225 72.9419ZM155.824 43.3116C155.824 43.3116 155.824 43.2469 155.76 43.1822C155.824 43.1822 155.824 43.1822 155.954 43.2469C155.889 43.2469 155.889 43.2469 155.824 43.3116ZM154.595 72.6184L154.53 72.6831C154.53 72.6184 154.595 72.6184 154.595 72.6184ZM148.32 72.8772C148.255 72.8772 148.255 72.8125 148.19 72.8125C148.255 72.8125 148.32 72.7478 148.32 72.7478C148.384 72.7478 148.384 72.8125 148.384 72.8125C148.384 72.8772 148.32 72.8772 148.32 72.8772ZM134.475 53.2746C134.41 53.3393 134.41 53.3393 134.346 53.3393C134.41 53.2746 134.41 53.2746 134.475 53.2746ZM150.519 38.136C150.519 38.2007 150.519 38.2007 150.455 38.2007C150.455 38.136 150.455 38.136 150.519 38.136ZM145.991 57.4151L146.055 57.3504C146.055 57.4151 145.991 57.4151 145.991 57.4151ZM155.695 66.6018C155.76 66.6018 155.76 66.6018 155.76 66.6665C155.695 66.6665 155.695 66.6018 155.695 66.6018ZM152.137 56.7682C152.137 56.8329 152.137 56.8329 152.072 56.8976C152.072 56.7682 152.072 56.7682 152.137 56.7682ZM150.39 56.6388C150.39 56.5741 150.39 56.5741 150.325 56.5094C150.39 56.5741 150.39 56.5741 150.39 56.6388ZM146.573 57.4798C146.508 57.4798 146.508 57.4798 146.508 57.4151L146.573 57.4798ZM151.49 72.8125C151.49 72.8125 151.49 72.8772 151.425 72.8772C151.49 72.8125 151.49 72.8125 151.49 72.8125ZM150.713 56.2506C150.713 56.2506 150.713 56.2506 150.649 56.1859L150.713 56.2506ZM151.878 73.0066C151.813 72.9419 151.813 72.9419 151.813 72.9419C151.813 72.9419 151.878 72.9419 151.878 73.0066ZM136.157 53.0806C136.092 53.0806 136.092 53.0806 136.092 53.0806C136.092 53.0806 136.092 53.0806 136.157 53.0806ZM149.031 73.3948C149.031 73.3948 149.031 73.3301 149.096 73.3301C149.096 73.3948 149.031 73.3948 149.031 73.3948ZM155.113 72.1656C155.113 72.1656 155.113 72.1009 155.113 72.0362C155.113 72.1009 155.113 72.1009 155.113 72.1656ZM145.991 56.7682C146.055 56.7682 146.12 56.7682 146.185 56.7682C146.249 56.8329 146.249 56.6388 146.314 56.7682C146.249 56.8976 146.185 56.8976 146.12 56.8976C146.12 56.8976 146.055 56.8976 145.991 56.8976C145.991 56.8329 145.991 56.8329 145.991 56.7682Z" fill="white"/>
</svg>
