<svg width="387" height="92" viewBox="0 0 387 92" fill="none" xmlns="http://www.w3.org/2000/svg">
<path d="M211.694 39.2751C206.699 39.2751 202.413 41.0065 198.837 44.4692C195.289 47.9319 193.515 52.1042 193.515 56.986C193.543 61.8679 195.331 66.0402 198.879 69.5029C202.427 72.9656 206.699 74.697 211.694 74.697C215.639 74.697 219.23 73.5333 222.465 71.2059L229.873 78.6564C224.594 82.8855 218.534 85 211.694 85C207.806 85 204.087 84.262 200.54 82.7861C196.992 81.3102 193.941 79.3234 191.386 76.8257C188.832 74.328 186.788 71.362 185.255 67.9277C183.723 64.4649 182.956 60.8319 182.956 57.0286V56.986V56.9435C182.956 53.1402 183.723 49.5213 185.255 46.087C186.788 42.6243 188.832 39.6441 191.386 37.1464C193.941 34.6203 196.992 32.6193 200.54 31.1434C204.087 29.6675 207.806 28.9295 211.694 28.9295C218.534 28.9295 224.594 31.044 229.873 35.2731L222.465 42.7236C219.258 40.4246 215.668 39.2751 211.694 39.2751Z" fill="black"/>
<path d="M75.8872 52.09H103.986V56.986C103.986 62.0666 102.723 66.764 100.197 71.0782C97.6995 75.364 94.2936 78.7699 89.9794 81.296C85.6652 83.7937 80.9678 85.0426 75.8872 85.0426C72.0839 85.0426 68.4509 84.3046 64.9882 82.8287C61.5538 81.3528 58.5736 79.366 56.0476 76.8683C53.5499 74.3422 51.5489 71.362 50.0446 67.9277C48.5687 64.4649 47.8307 60.8319 47.8307 57.0286V56.986C47.8307 53.1827 48.597 49.5497 50.1297 46.087C51.6624 42.6243 53.706 39.6441 56.2604 37.1464C58.8149 34.6487 61.8661 32.6619 65.4139 31.186C68.9618 29.6817 72.68 28.9295 76.5684 28.9295C83.4087 28.9295 89.4685 31.044 94.7477 35.2731L87.3397 42.7236C84.1325 40.4246 80.542 39.2751 76.5684 39.2751C71.573 39.2751 67.2872 41.0065 63.711 44.4692C60.1631 47.9319 58.3892 52.1042 58.3892 56.986C58.3892 61.8963 60.0779 66.0828 63.4555 69.5455C66.8615 72.9798 71.0054 74.697 75.8872 74.697C79.8608 74.697 83.4087 73.5191 86.5308 71.1633C89.6813 68.7792 91.8101 65.7422 92.917 62.0524H75.8872V52.09Z" fill="black"/>
<path d="M30.5684 39.2751C25.573 39.2751 21.2872 41.0065 17.711 44.4692C14.1631 47.9319 12.3892 52.1042 12.3892 56.986C12.4175 61.8679 14.2057 66.0402 17.7535 69.5029C21.3014 72.9656 25.573 74.697 30.5684 74.697C34.5136 74.697 38.1041 73.5333 41.3397 71.2059L48.7477 78.6564C43.4685 82.8855 37.4087 85 30.5684 85C26.68 85 22.9618 84.262 19.4139 82.7861C15.8661 81.3102 12.8149 79.3234 10.2604 76.8257C7.70597 74.328 5.6624 71.362 4.12972 67.9277C2.59704 64.4649 1.8307 60.8319 1.8307 57.0286V56.986V56.9435C1.8307 53.1402 2.59704 49.5213 4.12972 46.087C5.6624 42.6243 7.70597 39.6441 10.2604 37.1464C12.8149 34.6203 15.8661 32.6193 19.4139 31.1434C22.9618 29.6675 26.68 28.9295 30.5684 28.9295C37.4087 28.9295 43.4685 31.044 48.7477 35.2731L41.3397 42.7236C38.1325 40.4246 34.542 39.2751 30.5684 39.2751Z" fill="black"/>
<path d="M111.536 37.0482C111.762 35.0183 112.729 33.143 114.251 31.7811C115.773 30.4193 117.744 29.6665 119.786 29.6667H165.215C167.256 29.6678 169.226 30.4212 170.747 31.783C172.268 33.1447 173.234 35.0193 173.459 37.0482L177.77 75.7815C177.899 76.9419 177.782 78.1166 177.426 79.2286C177.071 80.3407 176.484 81.3652 175.706 82.2352C174.927 83.1053 173.974 83.8012 172.908 84.2776C171.842 84.7541 170.687 85.0003 169.52 85.0001H115.481C114.314 84.9995 113.16 84.7527 112.095 84.276C111.03 83.7992 110.077 83.1031 109.299 82.2332C108.521 81.3632 107.935 80.339 107.58 79.2273C107.224 78.1156 107.107 76.9415 107.237 75.7815L111.536 37.0482Z" fill="#FF8400"/>
<path d="M144.32 0C155.741 0 165 9.25875 165 20.6797C165 22.8442 164.667 24.9307 164.05 26.8916C164.285 25.6445 164.409 24.3583 164.409 23.043C164.409 11.622 155.15 2.36328 143.729 2.36328C134.474 2.36338 126.638 8.44438 124 16.8291C125.804 7.24824 134.215 0.000183047 144.32 0Z" fill="black"/>
<path d="M150.778 45.0147C150.713 45.1441 150.649 45.2088 150.519 45.2088C150.455 45.2088 150.39 45.1441 150.325 45.1441C149.937 45.1441 149.614 45.2735 149.29 45.4029C149.225 45.4029 149.161 45.4676 149.161 45.4676C149.031 45.2735 148.967 45.4029 148.902 45.4676C148.579 45.597 148.384 45.8557 147.996 45.8557C147.996 45.9851 147.802 45.6617 147.802 45.9204C147.737 46.0498 147.543 45.9204 147.414 45.9851C147.285 46.0498 147.22 46.1145 147.091 46.1145C146.961 46.1145 146.896 46.3086 146.767 46.3086C146.638 46.3733 146.508 46.438 146.314 46.438C146.379 46.7615 146.055 46.6321 145.926 46.7615C145.732 46.6968 145.797 46.9556 145.603 46.9556C145.473 46.9556 145.344 46.9556 145.214 47.0202C145.085 47.0202 144.956 47.1496 144.826 47.1496C144.697 47.2143 144.632 47.3437 144.438 47.3437C144.309 47.3437 144.179 47.5378 144.05 47.4731C143.985 47.6025 143.92 47.6672 143.726 47.5378C143.662 47.5378 143.468 47.6672 143.338 47.6672C143.209 47.7319 143.079 47.7319 142.95 47.7319C142.821 47.7966 142.691 47.7966 142.562 47.7966C142.368 47.8613 142.238 47.926 142.109 47.9907C142.044 48.0554 141.915 48.0554 141.786 48.0554C141.786 48.0554 141.721 48.0554 141.656 48.0554C141.591 48.0554 141.527 48.0554 141.462 48.0554C140.945 48.2495 140.492 48.3141 139.974 48.3788C139.586 48.4435 136.675 48.8964 136.416 49.0258C136.351 49.0258 136.286 49.0258 136.222 49.0258C136.157 49.0258 136.092 49.0258 135.963 49.0258C135.834 49.0258 135.64 49.0258 135.575 49.0905C135.51 49.0905 134.281 49.2846 134.216 49.2846C133.505 49.2846 132.469 48.8964 132.017 48.3788C131.887 48.1848 131.693 48.0554 131.499 47.9907C131.24 47.8613 131.111 47.5378 130.917 47.279C130.852 47.2143 130.787 47.1496 130.723 47.0849C130.593 46.9556 130.399 46.8909 130.335 46.6968C130.335 46.5027 130.076 46.5674 130.011 46.3086C129.946 46.1792 129.688 46.0498 129.688 45.8557C129.752 45.6617 129.558 45.597 129.494 45.4676C129.494 45.2735 129.364 45.1441 129.299 45.0147C129.17 44.8206 128.976 44.6912 129.041 44.4325C129.041 44.3031 128.976 44.0443 128.847 43.9796C128.782 43.9796 128.717 43.7208 128.782 43.6561C128.976 43.3973 128.652 43.2033 128.782 42.9445C128.652 42.8798 128.717 42.7504 128.717 42.621C128.717 42.5563 128.717 42.4916 128.717 42.4269C128.523 41.9094 128.523 41.9094 128.588 41.4565C128.588 41.4565 128.652 41.3918 128.588 41.3271C128.523 41.2624 128.394 41.1977 128.588 41.0683C128.588 41.0036 128.588 40.8742 128.588 40.8095C128.652 40.5508 129.105 40.0979 129.299 40.0979C129.364 40.0979 129.429 40.0979 129.494 40.1626C129.494 40.1626 129.623 40.0979 129.623 40.0332C129.688 39.8391 129.817 39.9038 129.946 39.9685C130.27 40.1626 130.723 40.0979 131.111 40.0979C131.176 39.9685 131.24 40.292 131.305 40.0979C131.37 40.0332 131.564 40.0979 131.628 40.0979C131.887 40.0979 132.211 40.0332 132.534 39.9038C132.599 39.9038 132.664 39.9038 132.793 39.9038C133.116 39.9038 133.44 39.9038 133.828 39.9038C133.893 39.9038 133.957 39.9038 134.022 39.9038C134.022 39.9038 134.087 39.8391 134.152 39.8391C134.216 39.8391 134.281 39.9038 134.41 39.9038C134.475 39.9038 134.54 39.9038 134.604 39.8391C134.604 39.7744 134.734 39.8391 134.799 39.8391C134.863 39.8391 134.993 39.8391 135.122 39.8391C135.251 39.8391 135.445 39.8391 135.64 39.645C135.64 39.645 135.704 39.645 135.769 39.645C135.963 39.5803 136.157 39.5803 136.351 39.5803C136.61 39.5803 136.804 39.5803 136.998 39.5156C137.322 39.5156 137.645 39.4509 137.969 39.3863C138.033 39.3863 138.163 39.3863 138.227 39.4509H138.551C138.874 39.3216 139.262 39.3216 139.651 39.1922C139.651 39.2569 139.715 39.2569 139.78 39.2569C139.845 39.2569 139.974 39.2569 140.039 39.2569C140.103 39.2569 140.168 39.2569 140.298 39.3216C140.427 39.1922 140.75 39.3216 140.815 39.0628C140.88 39.1275 140.945 39.1275 141.009 39.1275C141.139 39.1275 141.203 39.0628 141.268 39.0628C141.333 39.1275 141.462 39.1275 141.527 39.1275C141.85 39.1275 142.174 38.9981 142.497 38.9981C142.562 38.8687 142.756 39.0628 142.821 38.9334C143.015 38.9334 143.144 38.9981 143.274 38.9981C143.532 38.9981 143.791 38.9334 144.05 38.8687C144.115 38.9334 144.115 38.9981 144.179 38.9981C144.309 38.9981 144.373 38.8687 144.503 38.8687C144.503 38.8687 144.567 38.804 144.632 38.804C144.697 38.804 144.762 38.804 144.826 38.804C145.02 38.804 145.214 38.804 145.408 38.804C145.861 38.804 146.314 38.7393 146.702 38.7393C146.832 38.7393 146.896 38.7393 147.026 38.7393C147.091 38.6746 147.155 38.6746 147.22 38.6746C147.349 38.6746 147.414 38.7393 147.543 38.7393C147.608 38.7393 147.673 38.6746 147.737 38.6099C147.802 38.7393 147.867 38.7393 147.932 38.7393C147.996 38.7393 148.126 38.6099 148.255 38.6746C148.32 38.6746 148.449 38.7393 148.579 38.7393C148.643 38.7393 148.708 38.7393 148.773 38.6746C148.837 38.7393 148.902 38.7393 148.967 38.7393C149.031 38.7393 149.096 38.7393 149.161 38.7393C149.225 38.7393 149.225 38.7393 149.29 38.804C149.355 38.7393 149.42 38.6746 149.484 38.6746C149.872 38.6746 150.196 38.6746 150.584 38.6746C150.713 38.6746 150.843 38.7393 150.972 38.7393C151.037 38.5452 151.231 38.9334 151.296 38.6746C151.49 38.6746 151.619 38.7393 151.749 38.7393C151.878 38.7393 151.943 38.7393 152.072 38.7393C152.137 38.7393 152.266 38.804 152.331 38.7393C152.396 38.6099 152.46 38.804 152.525 38.7393C152.719 38.804 152.784 38.804 152.848 38.804C152.913 38.804 153.042 38.804 153.107 38.7393C153.237 38.6746 153.301 38.6746 153.431 38.804C153.495 38.804 153.625 38.6099 153.754 38.804C153.948 38.7393 154.013 38.7393 154.078 38.7393C154.272 38.7393 154.466 38.804 154.66 38.804C154.725 38.804 154.789 38.804 154.919 38.7393C155.048 38.8687 155.177 38.9334 155.371 38.8687C155.371 38.8687 155.436 38.8687 155.501 38.8687C155.63 38.8687 155.76 38.8687 155.889 38.9334C155.954 38.9334 156.018 38.9334 156.083 38.9334C156.148 38.9334 156.213 38.9334 156.407 39.0628C156.536 38.9981 156.665 38.9981 156.795 38.9981C157.054 38.9981 157.377 39.0628 157.636 39.1275C157.83 39.1275 157.959 39.0628 158.089 39.0628C158.218 39.0628 158.283 39.1922 158.412 39.1922C158.542 39.1275 158.606 39.1922 158.736 39.1922C158.865 39.1922 158.994 39.1922 159.124 39.3216C159.124 39.3216 159.253 39.3216 159.383 39.3216C159.641 39.3863 159.965 39.3863 160.224 39.4509C160.418 39.4509 160.547 39.3863 160.741 39.5156C160.806 39.5803 161 39.5156 161.129 39.5156C161.388 39.5803 161.582 39.645 161.906 39.7744C162.035 39.7744 162.164 39.7744 162.294 39.8391C162.423 39.8391 162.617 39.9685 162.682 39.9685C162.747 39.9038 162.811 39.9038 162.811 39.9038C163.005 39.9038 163.2 40.0332 163.394 40.0332C163.458 40.0979 164.17 40.292 164.364 40.292C164.429 40.292 164.623 40.292 164.558 40.4861C164.882 40.6155 165.14 40.6802 165.464 40.6802C165.464 41.0036 165.852 40.8742 165.852 41.0683C165.658 41.1977 165.464 41.2624 165.205 41.3271C164.946 41.3271 164.752 41.5212 164.558 41.5212C164.235 41.5859 163.911 41.7153 163.588 41.6506H163.523C163.329 41.7153 163.135 41.8447 162.941 41.78C162.811 41.78 162.682 41.8447 162.553 41.8447C162.488 41.8447 162.423 41.8447 162.359 41.78C162.294 41.8447 162.294 41.8447 162.229 41.8447C162.1 41.8447 162.035 41.8447 161.97 41.8447C161.906 41.8447 161.841 41.8447 161.776 41.9094C161.712 41.8447 161.582 41.8447 161.517 41.8447C161.129 41.8447 160.547 41.974 160.159 42.1034C159.965 42.1681 159.835 42.2328 159.641 42.2328C159.188 42.2328 158.865 42.621 158.412 42.5563C158.153 42.8151 157.765 42.8151 157.442 42.8151C157.377 42.8151 157.377 42.8151 157.312 42.8151C157.248 42.8151 156.989 42.8151 156.989 42.8798C156.989 43.0092 156.924 43.0092 156.859 43.0092C156.73 43.0092 156.536 43.0092 156.407 43.0092C156.083 43.0739 155.76 43.1386 155.436 43.1386C155.242 43.0739 155.113 43.2033 154.983 43.2033C154.854 43.2033 154.789 43.2033 154.725 43.3326C154.854 43.2679 154.919 43.5914 155.113 43.462C155.177 43.3326 155.177 43.5267 155.307 43.5267C155.371 43.462 155.436 43.462 155.566 43.462C155.63 43.462 155.63 43.5267 155.695 43.5914C155.566 43.5914 155.436 43.5914 155.307 43.5914C155.177 43.5914 154.983 43.5914 154.854 43.6561C154.66 43.7855 154.466 43.8502 154.336 43.9149C154.207 43.9796 154.142 44.0443 154.078 43.9149C153.948 43.7855 153.689 43.9149 153.56 43.7208C153.495 43.8502 153.301 43.7855 153.237 43.7855C153.107 43.8502 153.042 43.9149 152.978 43.9796C152.719 44.0443 152.396 43.9796 152.137 44.0443C152.072 44.109 152.007 44.0443 151.943 44.0443C151.878 43.9796 151.813 43.9149 151.749 43.9149C151.619 43.9149 151.554 43.9796 151.49 43.9796C151.554 43.9796 151.554 44.0443 151.684 44.109C151.554 44.109 151.49 44.109 151.36 44.109V44.2384C151.425 44.3031 151.554 44.3678 151.684 44.4325C151.749 44.3031 151.749 44.3031 151.813 44.3031C151.813 44.4325 151.878 44.4971 152.007 44.3678C152.137 44.3678 152.266 44.3678 152.331 44.3678C152.331 44.6912 152.007 44.4971 151.943 44.6265C151.425 44.6265 150.908 44.6912 150.455 44.8206C150.39 44.8206 150.261 44.7559 150.196 44.7559C150.066 44.8853 150.002 44.95 150.002 45.0147C150.066 45.0147 150.066 45.0147 150.131 44.95C150.325 45.0147 150.584 44.95 150.778 45.0147ZM147.414 73.0276C147.543 73.0923 147.608 73.0923 147.737 73.157C147.673 73.157 147.608 73.2217 147.543 73.2217C147.414 73.2864 147.349 73.2864 147.349 73.157C147.285 73.157 147.285 73.0923 147.22 73.0276C147.22 73.0923 147.155 73.157 147.155 73.157C147.091 73.2217 147.155 73.2864 147.091 73.2864C147.091 73.4805 147.22 73.5452 147.479 73.5452C147.479 73.4805 147.543 73.4805 147.608 73.4805C147.673 73.4805 147.802 73.4805 147.867 73.4805C147.932 73.4805 147.932 73.4805 147.996 73.4805C148.061 73.4158 148.126 73.4158 148.19 73.4158L148.255 73.4805C148.255 73.5452 148.255 73.6098 148.19 73.6098L146.961 73.9333C146.896 73.998 146.832 73.8686 146.702 73.8686C146.702 73.8686 146.055 74.1274 145.991 74.1921C145.861 74.1921 144.567 74.5803 144.503 74.5803C144.309 74.5803 144.115 74.7097 143.92 74.7744C143.532 74.839 143.079 75.0331 142.691 75.0331C142.562 75.0331 142.432 75.1625 142.303 75.1625C142.174 75.2272 141.915 75.0978 141.85 75.1625C141.786 75.2919 141.656 75.2919 141.527 75.2919C141.462 75.2919 141.333 75.2919 141.268 75.2919C141.203 75.2919 141.139 75.3566 141.139 75.3566C141.009 75.3566 140.945 75.486 140.75 75.3566C140.75 75.2919 140.556 75.3566 140.427 75.4213C140.298 75.4213 140.168 75.4213 140.039 75.486C139.909 75.5507 139.78 75.5507 139.651 75.5507C139.327 75.486 138.616 75.6801 138.292 75.8095C138.227 75.8742 138.163 75.8742 138.098 75.8742C137.71 75.8742 137.257 75.8742 136.869 76.1329C136.739 76.1976 136.675 75.9389 136.545 76.0683C136.481 76.1329 136.351 76.1329 136.286 76.1976C135.575 76.3917 134.863 76.3917 134.216 76.6505C134.152 76.6505 134.087 76.4564 134.022 76.5858C133.957 76.6505 133.828 76.6505 133.699 76.7152C133.634 76.7152 133.505 76.7152 133.44 76.7152C133.375 76.7799 133.246 76.8446 133.181 76.8446C132.728 76.8446 131.305 76.974 130.917 77.1034C130.787 77.1681 130.593 77.1034 130.464 77.1034C130.399 77.1034 130.335 77.1034 130.27 77.1034C130.27 77.1681 130.205 77.0387 130.205 77.0387C130.076 77.0387 130.011 76.9093 129.882 76.9093C129.882 76.9093 129.817 76.974 129.752 77.0387C129.623 76.974 129.494 76.9093 129.364 76.8446C129.235 76.8446 129.235 76.7152 129.17 76.5858C129.041 76.2623 128.911 75.9389 128.652 75.6154C128.523 75.4213 128.394 75.0978 128.329 74.7744C128.394 74.5803 128.2 74.5156 128.2 74.3215C128.2 74.1921 128.2 73.998 128.2 73.8686C128.2 73.8039 128.135 73.7392 128.135 73.7392C127.876 73.3511 127.747 72.3806 127.747 71.9278C127.682 71.6043 127.617 71.2808 127.617 70.8927C127.617 70.6986 127.488 70.5045 127.488 70.3104C127.488 70.0516 127.229 69.9869 127.294 69.7282C127.359 69.6635 127.229 69.5988 127.294 69.4694C127.294 69.2753 127.294 69.0812 127.165 68.8871C127.1 68.7577 127.165 68.7577 127.229 68.693C127.359 68.6283 127.488 68.5636 127.617 68.499C127.811 68.3049 127.876 68.2402 128.135 68.1108C128.458 68.1108 129.429 67.7226 129.623 67.3991C129.946 67.4638 130.205 67.2051 130.529 67.2051C130.593 67.1404 130.658 67.0757 130.723 67.0757C130.852 67.0757 130.917 67.0757 131.046 67.0757C131.111 67.0757 131.176 67.0757 131.176 67.0757C131.305 67.0757 131.37 67.0757 131.499 67.0757C131.564 67.0757 132.275 66.9463 132.275 66.8816C132.34 66.8816 132.405 66.8816 132.405 66.9463C132.534 67.0757 132.664 67.011 132.793 67.011C133.181 66.9463 133.634 66.8816 134.022 66.7522C134.152 66.6875 134.346 66.7522 134.475 66.7522C134.54 66.7522 134.604 66.7522 134.669 66.7522C134.928 66.7522 135.122 66.7522 135.381 66.6228C135.704 66.6228 135.834 66.6228 136.157 66.4934L136.675 66.5581C136.739 66.5581 136.869 66.5581 136.998 66.5581C137.257 66.5581 137.451 66.5581 137.71 66.5581C137.71 66.5581 137.774 66.5581 137.839 66.5581C137.904 66.5581 137.969 66.4934 138.033 66.4934C138.163 66.4934 138.227 66.364 138.357 66.364C138.421 66.364 138.486 66.4287 138.551 66.4934C138.745 66.4934 138.939 66.4934 139.068 66.364C139.198 66.2993 139.262 66.2993 139.392 66.2993C139.457 66.2993 139.586 66.2993 139.651 66.364C139.715 66.4287 139.78 66.4934 139.845 66.364C139.845 66.2993 139.845 66.1699 139.974 66.2993C140.039 66.4287 140.103 66.4287 140.168 66.4287C140.233 66.4287 140.233 66.4287 140.362 66.364C140.362 66.2993 140.492 66.4287 140.556 66.4287C140.621 66.4287 140.75 66.364 140.815 66.364C141.009 66.2993 141.139 66.2993 141.333 66.2993C141.527 66.2993 141.786 66.2993 142.044 66.2993C142.109 66.2993 142.174 66.2993 142.238 66.364C142.368 66.4287 142.562 66.2993 142.691 66.2346C142.756 66.2993 142.821 66.364 142.885 66.364C143.015 66.364 143.209 66.2993 143.338 66.2993C143.468 66.2993 143.597 66.2993 143.726 66.2993C143.92 66.364 144.115 66.364 144.309 66.364C144.503 66.364 144.762 66.364 144.956 66.364C145.02 66.364 145.15 66.364 145.279 66.364C145.408 66.364 145.538 66.2346 145.667 66.2993C145.797 66.364 146.185 66.364 146.379 66.364C146.444 66.364 146.508 66.364 146.573 66.2993C146.638 66.364 146.767 66.4287 146.832 66.4287C146.896 66.4287 146.961 66.4287 147.026 66.364C147.155 66.4287 147.22 66.4934 147.285 66.4934C147.479 66.4934 147.608 66.364 147.802 66.4287C148.061 66.4934 148.32 66.4934 148.579 66.4934C148.708 66.4934 148.902 66.4287 149.031 66.4934C149.096 66.5581 149.096 66.5581 149.161 66.5581C149.29 66.5581 149.743 66.5581 149.743 66.4934C150.002 66.5581 150.261 66.4934 150.519 66.6875C150.649 66.6228 150.778 66.6228 150.908 66.6228C151.037 66.6228 151.166 66.6228 151.296 66.7522C151.36 66.6875 151.425 66.6875 151.49 66.6875C151.619 66.6875 151.749 66.6875 151.878 66.6875C151.943 66.8169 152.072 66.7522 152.137 66.7522C152.201 66.7522 152.266 66.7522 152.266 66.8169C152.331 66.9463 152.46 66.6875 152.59 66.8169C152.719 66.9463 152.784 66.8816 152.913 66.8169C152.978 66.8169 153.107 66.9463 153.172 66.9463C153.301 66.8169 153.431 66.8816 153.56 66.9463C154.013 67.011 154.466 67.0757 154.919 67.2697C155.048 67.3344 155.177 67.3344 155.307 67.3344C155.371 67.3344 155.436 67.3344 155.501 67.3344C155.63 67.3344 155.695 67.3344 155.76 67.5285C155.76 67.6579 155.889 67.3344 155.889 67.5932C155.889 67.6579 156.083 67.9167 156.213 67.9167C156.277 67.9167 156.342 67.852 156.407 67.7873C156.471 67.7873 156.536 67.6579 156.601 67.5932C156.665 67.7226 156.665 67.7873 156.665 67.852C156.859 67.852 156.859 67.9814 156.859 68.0461C156.924 68.3049 156.924 68.499 156.924 68.7577C156.924 68.8224 156.73 68.9518 156.989 68.9518C156.989 68.9518 157.054 69.0812 156.989 69.0812C156.795 69.2106 157.118 69.34 156.989 69.4694C157.118 69.8575 156.924 70.1163 156.795 70.4398C156.665 70.6339 156.665 70.6986 156.665 70.9574C156.665 71.2161 156.601 71.4749 156.342 71.669C156.213 71.7337 156.277 71.8631 156.342 71.9925C156.342 72.0572 156.342 72.1219 156.342 72.1219C156.277 72.1219 156.148 72.1219 156.148 72.1219C156.148 71.9925 155.824 72.0572 156.083 71.8631C156.018 71.7984 155.889 71.7337 155.76 71.7337C155.695 71.7337 155.63 71.7337 155.566 71.7984L155.501 71.9278C155.242 71.9278 154.983 72.0572 154.983 72.3806C154.919 72.51 154.854 72.3159 154.789 72.3159C154.595 72.4453 154.466 72.6394 154.272 72.8335C154.272 72.8982 154.272 72.9629 154.207 72.9629C154.207 72.9629 154.078 72.9629 154.078 72.8982C154.078 72.7041 153.948 72.7041 153.754 72.7041C153.431 72.7041 153.172 72.5747 152.913 72.4453C152.848 72.4453 152.784 72.4453 152.719 72.4453C152.525 72.4453 152.331 72.4453 152.137 72.4453C152.072 72.51 151.943 72.51 151.878 72.51C151.749 72.51 151.684 72.51 151.554 72.4453C151.36 72.4453 151.102 72.4453 150.908 72.4453C150.713 72.51 150.455 72.5747 150.261 72.5747C150.131 72.5747 150.066 72.5747 149.937 72.51C149.808 72.51 149.614 72.51 149.484 72.51C149.42 72.51 149.355 72.51 149.29 72.5747C149.161 72.7688 148.967 72.8335 148.773 72.8982C148.579 72.8982 148.384 72.9629 148.19 72.9629C148.126 72.9629 148.126 72.9629 148.061 72.9629C147.867 72.9629 147.608 72.9629 147.414 73.0276ZM148.773 57.048C148.708 57.242 148.708 57.242 148.579 57.1773C148.384 56.9833 148.255 56.8539 148.061 56.8539C147.932 56.8539 147.543 56.9186 147.414 56.9186C147.349 56.9833 147.285 57.1127 147.155 56.9833C147.155 57.048 146.896 57.1127 147.155 57.1773C147.026 57.1773 146.961 57.3714 146.832 57.3714C146.832 57.3714 146.767 57.3714 146.702 57.3067C146.702 57.242 146.508 57.242 146.508 57.4361H146.444C146.314 57.242 146.249 57.4361 146.12 57.4361C145.991 57.4361 145.926 57.5008 145.797 57.5008C145.732 57.5008 145.667 57.5008 145.603 57.4361C145.603 57.3714 145.538 57.3714 145.473 57.3714C145.344 57.4361 145.279 57.5008 145.15 57.5655C145.085 57.5655 144.891 57.4361 144.826 57.6302C144.762 57.6302 144.762 57.6949 144.762 57.6949C144.956 57.6949 145.02 57.7596 145.15 57.8243C145.085 57.8243 145.02 57.8243 144.956 57.8243C144.826 57.8243 144.632 57.7596 144.503 57.7596C144.373 57.7596 144.309 57.7596 144.115 57.8243C144.179 57.9537 144.244 57.9537 144.244 57.9537C144.503 57.9537 144.762 58.0184 145.02 58.0184C145.085 58.0184 145.15 58.0184 145.214 58.0184C145.344 58.0184 145.473 58.0184 145.603 58.0184C145.667 58.0184 145.797 58.0184 145.926 57.9537C145.991 58.0831 146.12 57.889 146.185 57.9537C146.508 58.0184 146.896 57.9537 147.22 58.1478C147.285 58.2125 147.414 58.1478 147.543 58.1478C147.608 58.1478 147.608 58.0184 147.673 58.1478C147.673 58.2125 147.608 58.2772 147.543 58.3419H147.414C147.285 58.2772 147.155 58.1478 147.091 58.2125C146.896 58.3419 146.832 58.1478 146.767 58.2125C146.702 58.3419 146.573 58.1478 146.508 58.2125C146.444 58.2772 146.379 58.2125 146.314 58.1478C146.249 58.1478 146.185 58.1478 146.12 58.2125C146.055 58.2772 145.991 58.3419 145.926 58.4065C145.667 58.4065 145.408 58.4065 145.15 58.4065C145.02 58.4065 144.891 58.4065 144.762 58.4065C144.632 58.3419 144.503 58.5359 144.373 58.3419C144.373 58.4065 144.309 58.4065 144.309 58.4065C144.244 58.5359 144.179 58.5359 144.115 58.4712C144.05 58.4065 143.985 58.4065 143.985 58.5359L143.856 58.6006C143.726 58.4065 143.532 58.4712 143.403 58.4712C143.274 58.4065 143.144 58.4065 143.015 58.5359C143.015 58.5359 143.015 58.5359 143.015 58.6006C142.885 58.6006 142.821 58.4065 142.756 58.5359C142.691 58.5359 142.885 58.6653 142.691 58.6653C142.368 58.73 142.109 58.7947 141.85 58.9241C141.786 58.9241 141.656 58.9888 141.591 58.9888C141.527 58.9888 141.527 58.9888 141.333 58.9241C140.88 59.1829 140.75 59.2476 140.233 59.2476C140.103 59.2476 139.974 59.2476 139.845 59.2476C139.78 59.3123 139.651 59.2476 139.651 59.377C139.651 59.4417 139.78 59.5711 139.909 59.5711C139.974 59.5064 139.974 59.5064 140.039 59.5064C140.168 59.5064 140.362 59.5064 140.492 59.5711C140.298 59.6358 140.039 59.6358 139.845 59.8298C139.586 59.7004 139.457 60.0886 139.262 60.0239C139.068 60.218 138.81 60.218 138.551 60.2827C137.969 60.4768 137.451 60.7356 136.869 61.059C136.545 61.2531 135.445 61.6413 135.057 61.706C134.928 61.706 134.734 61.7707 134.604 61.9001C134.475 62.0295 134.216 62.0295 134.022 62.0942C133.893 62.1589 133.505 62.3529 133.311 62.3529C133.246 62.3529 133.052 62.4176 132.987 62.6117C132.858 62.547 132.728 62.6117 132.599 62.7411C132.405 62.8705 132.211 63.0646 131.952 63.194C131.823 63.2587 131.758 63.3234 131.693 63.194C131.628 62.9999 131.434 62.9352 131.305 62.8058C130.982 62.0295 130.787 61.059 130.723 60.218C130.723 60.218 130.723 60.1533 130.658 60.0886C130.529 59.9592 130.593 59.9592 130.723 59.9592C130.723 59.7651 130.658 59.5711 130.658 59.4417C130.464 59.5064 130.464 59.4417 130.464 59.3123C130.464 59.0535 130.399 58.8594 130.335 58.6653C130.529 58.4712 130.27 58.2125 130.399 58.0831C130.205 57.889 130.399 57.6949 130.27 57.5008C130.27 57.4361 130.335 57.242 130.399 57.1773C130.529 57.048 130.529 56.8539 130.399 56.7245C130.399 56.5951 130.335 56.4657 130.529 56.4657C130.464 56.5951 130.529 56.6598 130.723 56.7245C130.787 56.7245 130.787 56.6598 130.723 56.6598C130.723 56.5304 130.658 56.4657 130.529 56.401C130.205 56.1422 130.399 55.8188 130.399 55.56C130.399 55.4953 130.529 55.4953 130.529 55.4953C130.658 55.4953 130.723 55.4953 130.723 55.3012C130.723 55.2365 130.787 55.1718 130.852 55.1071C130.917 54.9777 131.046 54.8483 130.852 54.7189C130.723 54.6542 130.787 54.5249 130.917 54.5249C131.046 54.5249 131.176 54.3308 131.305 54.3308C131.37 54.3308 131.37 54.3955 131.434 54.3955C131.499 54.3955 131.693 54.3308 131.693 54.3308C131.693 54.072 131.823 54.072 131.887 54.072C132.017 54.072 132.146 54.072 132.211 54.0073C132.469 54.072 132.728 53.8779 132.922 53.9426C133.375 53.9426 133.763 53.8132 134.152 53.8132C134.281 53.8132 134.346 53.6838 134.475 53.8132C134.54 53.8779 134.734 53.7485 134.863 53.7485C135.122 53.7485 135.316 53.7485 135.575 53.6838C135.64 53.6191 135.64 53.6838 135.704 53.6838C135.834 53.6838 135.963 53.6838 136.092 53.6838C136.545 53.6838 137.063 53.6191 137.516 53.6191C137.904 53.6191 138.292 53.6191 138.745 53.4897C139.133 53.4897 139.521 53.4897 139.909 53.4897C140.103 53.4897 140.233 53.5544 140.362 53.5544C140.427 53.5544 140.492 53.5544 140.492 53.4897C140.621 53.4897 140.686 53.4897 140.75 53.4897C140.88 53.4897 141.009 53.4897 141.074 53.4897C141.203 53.4897 141.268 53.4897 141.397 53.4897C141.462 53.4897 141.527 53.4897 141.656 53.4897C141.786 53.425 141.98 53.4897 142.109 53.4897C142.238 53.4897 142.368 53.6838 142.497 53.5544C143.209 53.5544 143.856 53.5544 144.503 53.6191C144.632 53.6191 145.085 53.6191 145.214 53.4897C145.214 53.6191 145.344 53.6191 145.408 53.6191C145.538 53.5544 145.603 53.5544 145.732 53.5544C145.926 53.5544 146.12 53.6191 146.314 53.6191C146.379 53.6191 146.508 53.6191 146.444 53.7485C146.444 53.7485 146.832 53.8132 146.832 53.7485C146.896 53.6838 146.896 53.6191 146.961 53.7485L147.091 53.6838C147.349 53.6191 147.479 53.8132 147.673 53.7485C147.932 53.9426 148.19 53.8132 148.449 53.8779C148.579 53.9426 148.708 53.7485 148.708 54.0073C148.708 54.0073 148.902 54.072 148.902 54.0073C148.967 53.9426 149.031 54.0073 149.096 54.072C149.161 53.9426 149.29 54.072 149.29 54.072C149.42 53.8779 149.484 54.072 149.549 54.1367C149.808 54.2014 150.131 54.2661 150.455 54.3955C150.519 54.3955 150.649 54.3955 150.649 54.4602C150.778 54.5896 150.908 54.6542 150.972 54.6542C151.102 54.6542 151.166 54.5896 151.296 54.5896C151.49 54.7189 151.684 54.913 151.878 54.9777C152.072 55.0424 152.007 55.2365 152.137 55.4306C151.943 55.4953 151.943 55.8188 151.684 55.7541C151.619 55.7541 151.49 55.8188 151.425 55.8834C151.296 56.0128 151.166 56.0775 150.972 56.0775C150.908 56.0775 150.778 56.0775 150.713 56.0128C150.713 56.2069 150.649 56.3363 150.649 56.401C150.39 56.4657 150.196 56.5951 149.937 56.7245C150.066 56.7892 150.131 56.8539 150.261 56.9186C150.131 56.9833 150.002 56.9833 149.937 56.9833C149.872 56.9833 149.678 57.048 149.678 56.9833C149.678 56.9833 149.29 56.9833 149.225 56.9833C149.031 56.9833 148.902 56.9833 148.773 57.048C148.773 56.9833 148.773 56.9833 148.708 56.9833C148.708 56.9833 148.708 56.9833 148.773 57.048ZM146.896 56.8539C146.508 56.8539 146.314 56.8539 145.991 56.9833C145.926 56.9833 145.861 56.9833 145.797 56.9833C145.797 56.9833 145.861 57.048 145.861 57.1127C145.797 57.3067 145.861 57.3714 145.991 57.3067C146.314 57.242 146.638 57.1127 146.896 56.8539ZM145.732 57.048C145.667 56.9833 145.603 56.9186 145.603 56.9186C145.473 56.9186 145.408 56.9186 145.344 56.9186C145.02 56.9833 144.762 57.048 144.438 57.1127C144.373 57.1127 144.244 57.1127 144.309 57.242C144.309 57.242 144.373 57.3714 144.503 57.3714C144.762 57.3067 144.956 57.242 145.279 57.242C145.408 57.3067 145.473 57.242 145.603 57.1773C145.667 57.1773 145.667 57.1127 145.732 57.048ZM143.985 57.5008L143.92 57.4361C143.985 57.5008 143.985 57.5008 143.985 57.5008ZM143.985 57.8243C143.985 57.889 143.985 57.889 143.985 57.9537C143.985 57.8243 143.985 57.8243 143.985 57.8243ZM147.155 53.8779C147.155 53.8132 147.155 53.8132 147.155 53.8132C147.155 53.8132 147.155 53.8132 147.155 53.8779ZM151.49 73.157C151.231 73.2864 151.037 73.3511 150.843 73.2864C150.843 73.2864 150.778 73.2864 150.713 73.3511C150.519 73.4158 150.455 73.4158 150.325 73.4158C150.261 73.4158 150.131 73.4158 149.937 73.3511C150.131 73.3511 150.325 73.2864 150.519 73.157C150.843 73.157 151.166 73.157 151.49 73.157ZM155.695 66.7522C155.501 66.8816 155.371 66.8816 155.307 66.9463C155.242 66.9463 155.113 66.8816 155.113 66.8816C155.113 66.7522 154.983 66.7522 154.919 66.6875C154.983 66.6875 154.983 66.6228 155.048 66.6228C155.113 66.6875 155.242 66.6875 155.307 66.7522C155.371 66.7522 155.501 66.7522 155.695 66.7522ZM143.403 59.0535C143.532 58.9241 143.597 58.8594 143.662 58.8594C143.791 58.8594 143.92 58.9241 144.05 58.7947C143.856 59.0535 143.662 59.0535 143.403 59.0535ZM155.889 67.2697C156.018 67.2051 156.083 67.1404 156.148 67.1404C156.213 67.1404 156.277 67.2051 156.342 67.3344C156.213 67.3344 156.083 67.3344 155.889 67.2697ZM165.787 40.4214C165.852 40.4214 165.917 40.4214 165.917 40.4861C165.981 40.4861 165.981 40.5508 165.981 40.6155C165.852 40.5508 165.852 40.5508 165.787 40.5508C165.723 40.4861 165.658 40.7448 165.658 40.4861C165.658 40.4861 165.723 40.4214 165.787 40.4214ZM149.678 73.7392C149.808 73.6745 149.872 73.6098 149.937 73.6098C150.002 73.6098 150.002 73.6745 150.002 73.7392C149.937 73.8686 149.808 73.8039 149.678 73.7392ZM148.643 73.4805C148.514 73.4805 148.514 73.5452 148.514 73.5452C148.449 73.5452 148.384 73.4805 148.384 73.4158L148.449 73.3511C148.514 73.3511 148.514 73.4158 148.643 73.4805ZM152.784 38.4805C152.848 38.4805 152.848 38.4158 152.913 38.4158C152.978 38.4805 152.978 38.4805 153.042 38.5452C152.978 38.5452 152.913 38.5452 152.784 38.4805ZM165.334 40.4861C165.27 40.4861 165.14 40.4214 165.076 40.4214C165.14 40.4214 165.27 40.4214 165.334 40.4861ZM152.46 44.1737C152.525 44.1737 152.59 44.1737 152.654 44.1737C152.654 44.2384 152.59 44.2384 152.525 44.3031C152.525 44.3031 152.525 44.2384 152.46 44.1737ZM149.678 73.4158C149.614 73.3511 149.614 73.3511 149.549 73.3511C149.614 73.2864 149.678 73.2864 149.678 73.2864C149.743 73.2864 149.808 73.2864 149.808 73.3511C149.808 73.3511 149.743 73.3511 149.678 73.4158ZM148.061 57.1773C148.061 57.048 148.061 57.048 148.061 57.048C148.126 57.048 148.126 57.1127 148.19 57.1127C148.126 57.1127 148.126 57.1773 148.061 57.1773ZM149.225 73.2217C149.29 73.2217 149.29 73.2864 149.29 73.3511C149.225 73.3511 149.225 73.2864 149.225 73.2217ZM155.824 43.5914C155.824 43.5914 155.824 43.5267 155.76 43.462C155.824 43.462 155.824 43.462 155.954 43.5267C155.889 43.5267 155.889 43.5267 155.824 43.5914ZM154.595 72.8982L154.53 72.9629C154.53 72.8982 154.595 72.8982 154.595 72.8982ZM148.32 73.157C148.255 73.157 148.255 73.0923 148.19 73.0923C148.255 73.0923 148.32 73.0276 148.32 73.0276C148.384 73.0276 148.384 73.0923 148.384 73.0923C148.384 73.157 148.32 73.157 148.32 73.157ZM134.475 53.5544C134.41 53.6191 134.41 53.6191 134.346 53.6191C134.41 53.5544 134.41 53.5544 134.475 53.5544ZM150.519 38.4158C150.519 38.4805 150.519 38.4805 150.455 38.4805C150.455 38.4158 150.455 38.4158 150.519 38.4158ZM145.991 57.6949L146.055 57.6302C146.055 57.6949 145.991 57.6949 145.991 57.6949ZM155.695 66.8816C155.76 66.8816 155.76 66.8816 155.76 66.9463C155.695 66.9463 155.695 66.8816 155.695 66.8816ZM152.137 57.048C152.137 57.1127 152.137 57.1127 152.072 57.1773C152.072 57.048 152.072 57.048 152.137 57.048ZM150.39 56.9186C150.39 56.8539 150.39 56.8539 150.325 56.7892C150.39 56.8539 150.39 56.8539 150.39 56.9186ZM146.573 57.7596C146.508 57.7596 146.508 57.7596 146.508 57.6949L146.573 57.7596ZM151.49 73.0923C151.49 73.0923 151.49 73.157 151.425 73.157C151.49 73.0923 151.49 73.0923 151.49 73.0923ZM150.713 56.5304C150.713 56.5304 150.713 56.5304 150.649 56.4657L150.713 56.5304ZM151.878 73.2864C151.813 73.2217 151.813 73.2217 151.813 73.2217C151.813 73.2217 151.878 73.2217 151.878 73.2864ZM136.157 53.3603C136.092 53.3603 136.092 53.3603 136.092 53.3603C136.092 53.3603 136.092 53.3603 136.157 53.3603ZM149.031 73.6745C149.031 73.6745 149.031 73.6098 149.096 73.6098C149.096 73.6745 149.031 73.6745 149.031 73.6745ZM155.113 72.4453C155.113 72.4453 155.113 72.3806 155.113 72.3159C155.113 72.3806 155.113 72.3806 155.113 72.4453ZM145.991 57.048C146.055 57.048 146.12 57.048 146.185 57.048C146.249 57.1127 146.249 56.9186 146.314 57.048C146.249 57.1773 146.185 57.1773 146.12 57.1773C146.12 57.1773 146.055 57.1773 145.991 57.1773C145.991 57.1127 145.991 57.1127 145.991 57.048Z" fill="black"/>
<path d="M263.433 64.9223C277.171 64.9223 277.267 84.9966 263.433 84.9966H245.874V78.7083H263.433C268.609 78.7083 268.512 71.2106 263.433 71.2106H257.725V64.9223H263.433ZM252.404 61.2461C252.404 62.9391 253.71 64.9223 256.226 64.9223H261.934V71.2106H256.226C249.309 71.2106 245.874 66.2283 245.874 61.2461H252.404ZM271.366 51.1364V57.4247H245.874V51.1364H271.366ZM281.969 73.6292V65.6479H278.147V59.3596H281.969V51.1364H288.257V59.3596H292.368V65.6479H288.257V73.6292C288.257 77.2571 289.321 78.7083 292.32 78.7083V84.9966C285.5 84.9966 281.969 81.804 281.969 73.6292ZM296.721 72.1781C296.721 65.1158 302.477 59.3596 309.54 59.3596C316.602 59.3596 322.358 65.1158 322.358 72.1781C322.358 79.2403 316.602 84.9966 309.54 84.9966C302.477 84.9966 296.721 79.2403 296.721 72.1781ZM303.01 72.1781C303.01 75.8059 305.912 78.7083 309.54 78.7083C313.168 78.7083 316.07 75.8059 316.07 72.1781C316.07 68.5502 313.168 65.6479 309.54 65.6479C305.912 65.6479 303.01 68.5502 303.01 72.1781ZM326.727 84.9966V72.1781C326.727 65.1158 332.483 59.3596 339.545 59.3596H343.173V65.6479H339.545C335.917 65.6479 333.015 68.5502 333.015 72.1781V84.9966H326.727ZM366.821 72.1781H373.11C373.11 79.2887 367.402 84.9482 360.291 84.9482C353.18 84.9482 347.521 79.2887 347.521 72.1781C347.521 65.0674 353.18 59.3596 360.291 59.3596C365.032 59.3596 369.095 61.8749 371.32 65.5995L358.501 78.418C359.082 78.5631 359.662 78.6599 360.291 78.6599C363.919 78.6599 366.821 75.8059 366.821 72.1781ZM354.051 73.9678L362.129 65.8897C361.549 65.7446 360.92 65.6479 360.291 65.6479C356.663 65.6479 353.809 68.5502 353.809 72.1781C353.809 72.8069 353.906 73.3874 354.051 73.9678Z" fill="#FF8400"/>
</svg>
